<?xml version="1.0"?>
<svg width="1480" height="352" xmlns="http://www.w3.org/2000/svg" xmlns:svg="http://www.w3.org/2000/svg" version="1.1">
 <defs id="defs6">
  <clipPath clipPathUnits="userSpaceOnUse" id="clipPath16">
   <path d="m-405.31,1487.51l1920,0l0,-1080l-1920,0l0,1080z" id="path14"/>
  </clipPath>
 </defs>
 <g class="layer">
  <title>Layer 1</title>
  <g id="g8" transform="matrix(1.33333, 0, 0, -1.33333, 0, 1440)">
   <g id="g10">
    <g clip-path="url(#clipPath16)" id="g12">
     <g id="g18" transform="translate(819.229, 532.953)">
      <path d="m-405.31,407.51c-2.21,-5.07 -5.24,-9.53 -9.07,-13.36c-3.84,-3.84 -8.29,-6.86 -13.36,-9.07c-5.07,-2.22 -10.54,-3.32 -16.39,-3.32l-26.53,0l0,84.27l26.53,0c5.85,0 11.32,-1.11 16.39,-3.32c5.07,-2.21 9.52,-5.23 13.36,-9.07c3.83,-3.83 6.86,-8.29 9.07,-13.36c2.21,-5.07 3.31,-10.53 3.31,-16.38c0,-5.86 -1.1,-11.32 -3.31,-16.39m13.65,66.71c-6.5,6.25 -14.3,11.12 -23.4,14.63c-9.11,3.52 -19.19,5.27 -30.24,5.27l-56.57,0l0,-140.45l56.57,0c11.44,0 21.78,1.76 31.02,5.27c9.23,3.51 17.03,8.39 23.4,14.63c6.37,6.24 11.28,13.65 14.73,22.23c3.45,8.59 5.17,17.95 5.17,28.09c0,10.15 -1.82,19.51 -5.46,28.1c-3.64,8.58 -8.71,15.99 -15.22,22.23" fill="#1d1d1b" fill-rule="nonzero" id="path20"/>
     </g>
     <g id="g22" transform="translate(898.23, 542.12)">
      <path d="m-405.31,407.51c2.21,5.54 5.75,10.07 10.63,13.61c4.88,3.54 10.5,5.31 16.87,5.31c6.25,0 11.84,-1.77 16.78,-5.31c4.94,-3.54 8.52,-8.07 10.73,-13.61l-55.01,0zm68.96,29.07c-5.27,5.07 -11.48,9.07 -18.63,11.99c-7.15,2.93 -14.76,4.39 -22.82,4.39c-8.07,0 -15.68,-1.46 -22.83,-4.39c-7.15,-2.92 -13.36,-6.92 -18.63,-11.99c-5.26,-5.08 -9.43,-10.99 -12.48,-17.75c-3.06,-6.77 -4.58,-13.99 -4.58,-21.66c0,-7.67 1.52,-14.89 4.58,-21.65c3.05,-6.76 7.22,-12.68 12.48,-17.75c5.27,-5.07 11.48,-9.07 18.63,-12c7.15,-2.93 14.76,-4.39 22.83,-4.39c6.37,0 12.48,0.95 18.33,2.83c5.85,1.88 11.22,4.49 16.1,7.8c4.87,3.32 9.1,7.32 12.67,12c3.58,4.68 6.34,9.75 8.3,15.21l-32.39,0c-2.6,-3.38 -5.92,-6.11 -9.94,-8.19c-4.04,-2.08 -8.39,-3.12 -13.07,-3.12c-6.38,0 -12,1.79 -16.88,5.36c-4.88,3.58 -8.42,8.17 -10.63,13.76l85.05,0c0.26,1.69 0.49,3.34 0.68,4.97c0.2,1.63 0.3,3.35 0.3,5.17c0,7.67 -1.53,14.89 -4.59,21.65c-3.05,6.76 -7.22,12.68 -12.48,17.76" fill="#1d1d1b" fill-rule="nonzero" id="path24"/>
     </g>
     <g id="g26" transform="translate(510.03, 662.854)">
      <path d="m-405.31,407.51c17.07,-6.58 31.7,-15.73 43.9,-27.43c12.19,-11.71 21.69,-25.61 28.52,-41.7c6.83,-16.1 10.25,-33.66 10.25,-52.68c0,-19.02 -3.24,-36.58 -9.7,-52.67c-6.46,-16.09 -15.67,-29.99 -27.61,-41.7c-11.95,-11.7 -26.58,-20.85 -43.9,-27.43c-12.7,-4.83 -26.51,-7.87 -41.44,-9.16c0.75,-0.29 1.5,-0.57 2.26,-0.85l57.45,0c66.26,0 122.79,49.14 130.67,114.93c0.67,5.54 1.01,11.17 1.01,16.88c0,0.93 -0.01,1.86 -0.03,2.78c-1.38,71.26 -60.42,127.92 -131.69,127.92l-57.74,0c13.55,-1.4 26.25,-4.34 38.05,-8.89" fill="#1d1d1b" fill-rule="nonzero" id="path28"/>
     </g>
     <g id="g30" transform="translate(511.309, 485.264)">
      <path d="m-405.31,407.51c7.19,7.19 12.86,15.55 17.01,25.06c4.15,9.51 6.22,19.75 6.22,30.72c0,10.98 -2.07,21.22 -6.22,30.73c-4.15,9.51 -9.82,17.86 -17.01,25.06c-7.2,7.18 -15.55,12.86 -25.05,17c-9.52,4.15 -19.76,6.22 -30.73,6.22l-49.75,0l0,-158.02l49.75,0c10.97,0 21.21,2.07 30.73,6.22c9.5,4.15 17.85,9.81 25.05,17.01" fill="#1d1d1b" fill-rule="nonzero" id="path32"/>
     </g>
     <g id="g34" transform="translate(1338.5, 571.187)">
      <path d="m-405.31,407.51c-4.55,5.07 -10.08,9.07 -16.58,12c-6.5,2.92 -13.79,4.39 -21.85,4.39c-7.67,0 -14.79,-1.6 -21.36,-4.78c-6.57,-3.19 -12.12,-7.51 -16.68,-12.98c-4.55,5.47 -10.11,9.79 -16.67,12.98c-6.57,3.18 -13.69,4.78 -21.36,4.78c-8.07,0 -15.35,-1.47 -21.85,-4.39c-6.51,-2.93 -12.03,-6.93 -16.58,-12c-4.56,-5.07 -8.07,-10.99 -10.54,-17.75c-2.47,-6.77 -3.7,-13.98 -3.7,-21.66l0,-52.66l29.26,0l0,52.66c0,4.03 0.45,7.84 1.36,11.42c0.91,3.57 2.34,6.66 4.29,9.26c1.96,2.6 4.39,4.68 7.32,6.25c2.93,1.55 6.4,2.34 10.44,2.34c4.02,0 7.51,-0.79 10.43,-2.34c2.93,-1.57 5.37,-3.65 7.32,-6.25c1.95,-2.6 3.38,-5.69 4.29,-9.26c0.91,-3.58 1.36,-7.39 1.36,-11.42l0,-52.66l29.26,0l0,52.66c0,4.03 0.46,7.84 1.37,11.42c0.91,3.57 2.34,6.66 4.29,9.26c1.95,2.6 4.39,4.68 7.32,6.25c2.92,1.55 6.4,2.34 10.43,2.34c4.03,0 7.51,-0.79 10.44,-2.34c2.92,-1.57 5.36,-3.65 7.31,-6.25c1.95,-2.6 3.38,-5.69 4.29,-9.26c0.91,-3.58 1.37,-7.39 1.37,-11.42l0,-52.66l29.26,0l0,52.66c0,7.68 -1.24,14.89 -3.7,21.66c-2.48,6.76 -5.99,12.68 -10.54,17.75" fill="#1d1d1b" fill-rule="nonzero" id="path36"/>
     </g>
     <g id="g38" transform="translate(1450.86, 520.369)">
      <path d="m-405.31,407.51c-1.56,-3.58 -3.64,-6.67 -6.24,-9.27c-2.6,-2.6 -5.69,-4.68 -9.27,-6.24c-3.58,-1.56 -7.38,-2.34 -11.41,-2.34c-4.03,0 -7.84,0.78 -11.41,2.34c-3.58,1.56 -6.67,3.64 -9.27,6.24c-2.6,2.6 -4.68,5.69 -6.24,9.27c-1.56,3.58 -2.34,7.38 -2.34,11.41c0,4.03 0.78,7.84 2.34,11.41c1.56,3.58 3.64,6.67 6.24,9.27c2.6,2.6 5.69,4.68 9.27,6.24c3.57,1.56 7.38,2.34 11.41,2.34c4.03,0 7.83,-0.78 11.41,-2.34c3.58,-1.56 6.67,-3.64 9.27,-6.24c2.6,-2.6 4.68,-5.69 6.24,-9.27c1.56,-3.57 2.34,-7.38 2.34,-11.41c0,-4.03 -0.78,-7.83 -2.34,-11.41m13.46,50.82c-5.2,5.07 -11.35,9.07 -18.43,11.99c-7.09,2.93 -14.6,4.39 -22.53,4.39c-8.07,0 -15.61,-1.46 -22.63,-4.39c-7.02,-2.92 -13.14,-6.92 -18.34,-11.99c-5.2,-5.08 -9.33,-10.99 -12.39,-17.76c-3.05,-6.76 -4.58,-13.98 -4.58,-21.65c0,-7.67 1.53,-14.89 4.58,-21.65c3.06,-6.76 7.19,-12.68 12.39,-17.75c5.2,-5.07 11.32,-9.07 18.34,-12c7.02,-2.92 14.56,-4.39 22.63,-4.39c6.37,0 12.22,1.47 17.55,4.39c5.33,2.93 9.69,6.86 13.07,11.8l0,-13.07l27.31,0l0,52.67c0,7.68 -1.53,14.89 -4.58,21.65c-3.06,6.77 -7.19,12.68 -12.39,17.76" fill="#1d1d1b" fill-rule="nonzero" id="path40"/>
     </g>
     <g id="g42" transform="translate(1502.4, 615.042)">
      <path d="m-405.31,407.51c0,-0.37 -0.07,-0.71 -0.22,-1.03c-0.15,-0.32 -0.33,-0.6 -0.56,-0.83c-0.23,-0.24 -0.5,-0.43 -0.8,-0.57c-0.3,-0.13 -0.6,-0.2 -0.89,-0.2l-5.21,0l0,5.26l5.21,0c0.29,0 0.59,-0.07 0.89,-0.2c0.3,-0.14 0.57,-0.33 0.8,-0.56c0.23,-0.24 0.41,-0.52 0.56,-0.84c0.15,-0.32 0.22,-0.66 0.22,-1.03m4.95,-12.54l-4.89,6.37c0.62,0.23 1.19,0.55 1.72,0.96c0.53,0.4 0.99,0.87 1.38,1.41c0.38,0.54 0.68,1.13 0.9,1.77c0.22,0.64 0.33,1.32 0.33,2.03c0,0.91 -0.18,1.77 -0.52,2.56c-0.35,0.8 -0.83,1.49 -1.43,2.09c-0.6,0.59 -1.31,1.06 -2.11,1.41c-0.81,0.35 -1.66,0.52 -2.58,0.52l-5.43,0l-4.39,0l0,-19.75l4.39,0l0,6.59l3.02,0l4.93,-6.59l4.01,0c-2.31,-2.01 -5.32,-3.24 -8.62,-3.24c-7.24,0 -13.13,5.89 -13.13,13.13c0,7.24 5.89,13.13 13.13,13.13c7.24,0 13.13,-5.89 13.13,-13.13c0,-3.61 -1.47,-6.89 -3.84,-9.26m-9.29,26.04c-9.25,0 -16.77,-7.53 -16.77,-16.78c0,-9.25 7.52,-16.78 16.77,-16.78c9.25,0 16.78,7.53 16.78,16.78c0,9.25 -7.53,16.78 -16.78,16.78" fill="#1d1d1b" fill-rule="nonzero" id="path44"/>
     </g>
     <path d="m716.47,886.62l29.26,0l0,105.34l-29.26,0l0,-105.34z" fill="#1d1d1b" fill-rule="nonzero" id="path46"/>
     <g id="g48" transform="translate(1105, 584.45)">
      <path d="m-405.31,407.51l-35.11,0l-20.68,-28.87l-20.68,28.87l-35.11,0l38.04,-50.13l-42.33,-55.21l35.5,0l24.58,33.94l24.58,-33.94l35.5,0l-42.33,55.21l38.04,50.13z" fill="#1d1d1b" fill-rule="nonzero" id="path50"/>
     </g>
     <g id="g52" transform="translate(1148.21, 623.563)">
      <path d="m-405.31,407.51c-1.5,1.49 -3.25,2.7 -5.27,3.61c-2.02,0.91 -4.19,1.36 -6.53,1.36c-2.34,0 -4.52,-0.45 -6.54,-1.36c-2.02,-0.91 -3.8,-2.12 -5.36,-3.61c-1.56,-1.5 -2.76,-3.25 -3.61,-5.27c-0.85,-2.02 -1.27,-4.19 -1.27,-6.53c0,-4.68 1.63,-8.65 4.88,-11.9c3.25,-3.25 7.22,-4.88 11.9,-4.88c2.34,0 4.52,0.42 6.53,1.27c2.02,0.84 3.77,2.05 5.27,3.61c1.49,1.56 2.7,3.34 3.61,5.36c0.91,2.02 1.36,4.2 1.36,6.54c0,2.34 -0.45,4.52 -1.36,6.53c-0.91,2.02 -2.12,3.77 -3.61,5.27" fill="#1d1d1b" fill-rule="nonzero" id="path54"/>
     </g>
    </g>
   </g>
  </g>
 </g>
</svg>