<?xml version="1.0" encoding="utf-8"?>
<!-- Generator: Adobe Illustrator 26.0.1, SVG Export Plug-In . SVG Version: 6.00 Build 0)  -->
<svg version="1.1" xmlns="http://www.w3.org/2000/svg" xmlns:xlink="http://www.w3.org/1999/xlink" x="0px" y="0px"
	 viewBox="0 0 57.5 34.7" style="enable-background:new 0 0 57.5 34.7;" xml:space="preserve">
<style type="text/css">
	.st0{display:none;}
	.st1{display:inline;fill-rule:evenodd;clip-rule:evenodd;fill:#020203;stroke:#020203;stroke-width:0.7087;stroke-linecap:round;}
	.st2{display:inline;}
	.st3{fill-rule:evenodd;clip-rule:evenodd;fill:#020203;stroke:#020203;stroke-width:0.7087;stroke-linecap:round;}
</style>
<g id="Шар_2" class="st0">
	
		<image style="display:inline;overflow:visible;" width="1366" height="768" xlink:href="CE0B728B.jpg"  transform="matrix(2.0361 0 0 2.0361 -550.78 -164.9901)">
	</image>
</g>
<g id="Шар_1">
	<g id="Шар_1_00000085964599964550031120000002866154520394722954_" class="st0">
		<path class="st1" d="M83.2-419.8l4.5-10.1c1.6,1.2,3.2,2.3,5,3.2c1.7,0.9,3.5,1.7,5.4,2.3c4.1,1.5,8.4,2.2,12.7,2.2
			c3.7,0,6.6-0.4,8.9-1.2c0.7-0.2,1.4-0.6,2.1-0.9c1.2-0.6,2.2-1.4,2.9-2.3c1.1-1.4,1.6-2.9,1.6-4.6c0-0.8-0.1-1.7-0.4-2.5
			c-0.4-1-1-2-1.9-2.7c-1.5-1.3-3.5-2.3-6-3.1c-2.4-0.8-5.1-1.5-8.1-2.1c-3-0.7-5.9-1.5-8.9-2.4c-2.1-0.6-4.1-1.4-6-2.4
			c-0.7-0.4-1.4-0.7-2.1-1.1c-2.4-1.4-4.4-3.4-6-5.8c-0.8-1.3-1.4-2.7-1.8-4.2c-0.3-1.2-0.5-2.5-0.5-3.9c0-0.4,0-0.7,0-1
			c0-3.8,1-7.3,3-10.4c1.3-2,3-3.7,4.9-5.1c1.4-1,2.9-1.8,4.4-2.5c4.2-1.9,9.5-2.9,15.9-2.9c4.2,0,8.4,0.5,12.5,1.6
			c2.1,0.5,4.1,1.2,6.1,2.1c1.6,0.7,3.2,1.5,4.7,2.5l-4.1,10.1c-2.9-1.8-6.1-3.1-9.4-4.1c-0.1,0-0.2-0.1-0.3-0.1
			c-3.3-0.9-6.5-1.4-9.6-1.4c-1.2,0-2.3,0-3.5,0.1c-2,0.2-3.8,0.6-5.3,1.1c-1.7,0.6-3,1.4-4,2.4c-0.3,0.3-0.6,0.6-0.9,1
			c-1,1.4-1.5,3-1.5,4.8c0,0.8,0.1,1.7,0.4,2.5c0.4,1,1,2,1.9,2.7c1.4,1.2,3.2,2.2,5.3,2.9c0.2,0.1,0.4,0.1,0.6,0.2
			c2.4,0.7,5.1,1.4,8.1,2.1c3,0.7,6,1.5,9,2.4c3,0.9,5.7,2,8.1,3.4s4.4,3.3,5.9,5.7c0.8,1.3,1.4,2.8,1.7,4.3
			c0.3,1.2,0.4,2.5,0.5,3.8c0,0.3,0,0.6,0,1c0,3.7-1,7.2-3,10.4c-1.3,2-2.9,3.7-4.9,5c-1.4,1-2.9,1.9-4.5,2.6c-2,0.9-4,1.5-6.1,1.9
			c-2,0.4-4.1,0.7-6.4,0.8c-1.1,0.1-2.2,0.1-3.4,0.1c-5.5,0-10.7-0.8-15.7-2.4S86.1-417.4,83.2-419.8z"/>
		<path class="st1" d="M37-412.4H6.4v-70H37c3.4,0,6.8,0.3,10.1,1c3.5,0.7,6.8,1.8,9.9,3.4c4.1,2.1,7.8,4.9,10.7,8.5
			c1,1.2,1.9,2.4,2.7,3.7c2.3,3.8,3.8,8,4.4,12.4c0.3,2,0.4,4,0.4,6c0,7-1.6,13.1-4.8,18.4s-7.7,9.3-13.4,12.2
			c-3.7,1.9-7.7,3.1-11.8,3.8C42.5-412.6,39.8-412.4,37-412.4z"/>
		<g id="svgGroup" class="st2">
			<path vector-effect="non-scaling-stroke" class="st3" d="M83.3-49.7l4.5-10.1c1.6,1.2,3.2,2.3,5,3.2c1.7,0.9,3.5,1.7,5.4,2.3
				c4.1,1.5,8.4,2.2,12.7,2.2c3.7,0,6.6-0.4,8.9-1.2c0.7-0.2,1.4-0.6,2.1-0.9c1.2-0.6,2.2-1.4,2.9-2.3c1.1-1.4,1.6-2.9,1.6-4.6
				c0-0.8-0.1-1.7-0.4-2.5c-0.4-1-1-2-1.9-2.7c-1.5-1.3-3.5-2.3-6-3.1c-2.4-0.8-5.1-1.5-8.1-2.1s-5.9-1.4-8.9-2.4
				c-2.1-0.6-4.1-1.4-6-2.4c-0.7-0.4-1.4-0.7-2.1-1.1c-2.4-1.4-4.4-3.4-6-5.8c-0.8-1.3-1.4-2.7-1.8-4.2c-0.3-1.2-0.5-2.5-0.5-3.9
				c0-0.3,0-0.7,0-1c0-3.8,1-7.3,3-10.4c1.3-2,3-3.7,4.9-5.1c1.4-1,2.9-1.8,4.4-2.5c4.2-1.9,9.5-2.8,15.9-2.8
				c4.2,0,8.4,0.5,12.5,1.6c2.1,0.5,4.1,1.2,6.1,2.1c1.6,0.7,3.2,1.5,4.7,2.5L132.2-97c-2.9-1.8-6.1-3.1-9.4-4.1
				c-0.1,0-0.2-0.1-0.3-0.1c-3.3-0.9-6.5-1.3-9.6-1.3c-1.2,0-2.3,0.1-3.5,0.2c-2,0.2-3.8,0.6-5.3,1.2c-1.7,0.7-3,1.4-4,2.4
				c-0.3,0.3-0.6,0.6-0.9,1c-1,1.4-1.5,3-1.5,4.8c0,0.8,0.1,1.7,0.4,2.5c0.4,1,1,2,1.9,2.7c1.4,1.2,3.2,2.2,5.3,2.9
				c0.2,0.1,0.4,0.1,0.6,0.2c2.4,0.7,5.1,1.4,8.1,2.1s6,1.5,9,2.4s5.7,2,8.1,3.4s4.4,3.3,5.9,5.7c0.8,1.3,1.4,2.8,1.7,4.3
				c0.3,1.2,0.4,2.5,0.5,3.8c0,0.3,0,0.6,0,1c0,3.7-1,7.2-3,10.4c-1.3,2-2.9,3.7-4.9,5c-1.4,1-2.9,1.9-4.5,2.6c-2,0.9-4,1.5-6.1,1.9
				c-2,0.4-4.1,0.7-6.4,0.8c-1.1,0.1-2.2,0.1-3.4,0.1c-5.5,0-10.7-0.8-15.7-2.4S86.2-47.3,83.3-49.7z M37.1-42.3H6.5v-70h30.6
				c3.4,0,6.8,0.3,10.1,1c3.5,0.7,6.8,1.8,9.9,3.4c4.1,2.1,7.8,4.9,10.7,8.5c1,1.2,1.9,2.4,2.7,3.7c2.3,3.8,3.8,8,4.4,12.3
				c0.3,2,0.4,4,0.4,6.1c0,7-1.6,13.1-4.8,18.4c-3.2,5.2-7.7,9.3-13.4,12.2c-3.7,1.9-7.7,3.1-11.8,3.8
				C42.6-42.5,39.9-42.3,37.1-42.3z M19.6-101.3v48h17c2.2,0,4.4-0.2,6.5-0.6c2.5-0.4,4.9-1.3,7.1-2.4c3.8-2,6.8-4.8,8.9-8.4
				c1.5-2.6,2.5-5.5,2.9-8.5c0.2-1.4,0.3-2.7,0.3-4.1c0-2.2-0.2-4.3-0.7-6.4c-0.5-2.2-1.3-4.3-2.5-6.2c-2.1-3.6-5.1-6.3-8.9-8.3
				c-2.4-1.2-4.9-2.1-7.5-2.5c-2-0.3-4.1-0.5-6.2-0.5L19.6-101.3L19.6-101.3z"/>
		</g>
		
			<image style="display:inline;overflow:visible;enable-background:new    ;" width="1341" height="754" xlink:href="CE0B7289.jpeg"  transform="matrix(2.9987 0 0 2.9987 -799.5518 -248.8766)">
		</image>
	</g>
	<g id="Шар_2_00000175317144951275870870000010579981716769383572_">
		<g>
			<path d="M0,34.1V1.2h13.3c4.9,0,8.9,1.6,11.8,4.8s4.5,7.1,4.5,11.8S28,26.3,25,29.4c-3.1,3.1-7.4,4.7-13.2,4.7H0z M6.5,27.2h5.6
				c3,0,5.5-0.8,7.6-2.5c2.1-1.6,3.1-4.1,3.1-7.4c0-2.7-0.9-4.9-2.7-6.8c-1.8-1.8-4.2-2.8-7.2-2.8H6.5V27.2z"/>
			<path d="M29.6,26.2l6-1.2c0.7,3.3,3.5,4.9,8.4,4.9c2.2,0,3.9-0.4,5.1-1.3c1.2-0.8,1.8-1.9,1.8-3.1c0-0.9-0.3-1.7-0.8-2.5
				c-0.5-0.8-1.7-1.4-3.5-1.8L40,19.6c-2.3-0.6-3.9-1.2-5-1.9c-1.1-0.7-1.9-1.7-2.6-3c-0.6-1.3-1-2.7-1-4.2c0-2.9,1.1-5.3,3.4-7.1
				c2.3-1.8,5.2-2.7,8.8-2.7c3,0,5.6,0.6,8,1.9c2.3,1.2,3.8,3,4.5,5.3l-5.9,1.4C49.2,6.7,46.9,6,43.5,6c-1.9,0-3.2-0.2-4.2,0.6
				s-1.5,1.8-1.5,2.9c0,1.9,1.6,3.2,4.8,4l5.9,1.4c3.6,0.8,5.9,2.1,7.2,3.8c1.2,1.7,1.8,3.5,1.8,5.5c0,3.2-1.3,5.8-3.8,7.6
				c-2.6,1.9-5.9,2.8-9.9,2.8c-3.4,0-6.4-0.7-9-2C32.1,31.2,30.4,29.1,29.6,26.2z"/>
		</g>
	</g>
	<g id="Шар_3" class="st0">
	</g>
</g>
</svg>
